<svg width="21" height="21" viewBox="0 0 21 21" fill="none" xmlns="http://www.w3.org/2000/svg">
<g clip-path="url(#clip0_5_2368)">
<mask id="path-1-inside-1_5_2368" fill="white">
<path d="M19.1069 5.62736C19.1069 4.71069 18.3569 3.96069 17.4402 3.96069H4.10685C3.19019 3.96069 2.44019 4.71069 2.44019 5.62736V15.6274C2.44019 16.544 3.19019 17.294 4.10685 17.294H17.4402C18.3569 17.294 19.1069 16.544 19.1069 15.6274V5.62736ZM17.4402 5.62736L10.7735 9.79403L4.10685 5.62736H17.4402ZM17.4402 15.6274H4.10685V7.29403L10.7735 11.4607L17.4402 7.29403V15.6274Z"/>
</mask>
<path d="M17.4402 5.62736L18.5002 7.32336L24.4138 3.62736H17.4402V5.62736ZM10.7735 9.79403L9.71352 11.49L10.7735 12.1525L11.8335 11.49L10.7735 9.79403ZM4.10685 5.62736V3.62736H-2.86674L3.04685 7.32336L4.10685 5.62736ZM17.4402 15.6274V17.6274H19.4402V15.6274H17.4402ZM4.10685 15.6274H2.10685V17.6274H4.10685V15.6274ZM4.10685 7.29403L5.16685 5.59803L2.10685 3.68553V7.29403H4.10685ZM10.7735 11.4607L9.71352 13.1567L10.7735 13.8192L11.8335 13.1567L10.7735 11.4607ZM17.4402 7.29403H19.4402V3.68553L16.3802 5.59803L17.4402 7.29403ZM21.1069 5.62736C21.1069 3.60612 19.4614 1.96069 17.4402 1.96069V5.96069C17.2523 5.96069 17.1069 5.81526 17.1069 5.62736H21.1069ZM17.4402 1.96069H4.10685V5.96069H17.4402V1.96069ZM4.10685 1.96069C2.08562 1.96069 0.440186 3.60612 0.440186 5.62736H4.44019C4.44019 5.81526 4.29475 5.96069 4.10685 5.96069V1.96069ZM0.440186 5.62736V15.6274H4.44019V5.62736H0.440186ZM0.440186 15.6274C0.440186 17.6486 2.08562 19.294 4.10685 19.294V15.294C4.29475 15.294 4.44019 15.4395 4.44019 15.6274H0.440186ZM4.10685 19.294H17.4402V15.294H4.10685V19.294ZM17.4402 19.294C19.4614 19.294 21.1069 17.6486 21.1069 15.6274H17.1069C17.1069 15.4395 17.2523 15.294 17.4402 15.294V19.294ZM21.1069 15.6274V5.62736H17.1069V15.6274H21.1069ZM16.3802 3.93136L9.71352 8.09803L11.8335 11.49L18.5002 7.32336L16.3802 3.93136ZM11.8335 8.09803L5.16685 3.93136L3.04685 7.32336L9.71352 11.49L11.8335 8.09803ZM4.10685 7.62736H17.4402V3.62736H4.10685V7.62736ZM17.4402 13.6274H4.10685V17.6274H17.4402V13.6274ZM6.10685 15.6274V7.29403H2.10685V15.6274H6.10685ZM3.04685 8.99002L9.71352 13.1567L11.8335 9.7647L5.16685 5.59803L3.04685 8.99002ZM11.8335 13.1567L18.5002 8.99002L16.3802 5.59803L9.71352 9.7647L11.8335 13.1567ZM15.4402 7.29403V15.6274H19.4402V7.29403H15.4402Z" fill="#BFBFBF" mask="url(#path-1-inside-1_5_2368)"/>
</g>
<defs>
<clipPath id="clip0_5_2368">
<rect width="20" height="20" fill="white" transform="translate(0.773438 0.627441)"/>
</clipPath>
</defs>
</svg>
