<svg width="24" height="24" viewBox="0 0 24 24" fill="none" xmlns="http://www.w3.org/2000/svg">
<path fill-rule="evenodd" clip-rule="evenodd" d="M4.30783 6.75731C4 7.4266 4 8.18802 4 9.71085V14.4668C4 16.5817 4 17.6391 4.65701 18.2961C5.26684 18.906 6.22167 18.9497 8.04689 18.9529C8.04688 18.9513 8.04688 18.9498 8.04688 18.9482V13.3403C8.04688 12.1686 8.99674 11.2188 10.1685 11.2188H13.5332C14.7049 11.2188 15.6548 12.1686 15.6548 13.3403V18.9482C15.6548 18.9498 15.6548 18.9513 15.6548 18.9529C17.4803 18.9497 18.4352 18.906 19.0451 18.2961C19.7021 17.6391 19.7021 16.5817 19.7021 14.4668V9.71085C19.7021 8.18802 19.7021 7.4266 19.3943 6.75731C19.0865 6.08802 18.5084 5.59249 17.3521 4.60145L16.2306 3.64009C14.1407 1.84878 13.0958 0.953125 11.8511 0.953125C10.6064 0.953125 9.56144 1.84878 7.47158 3.64009L7.47158 3.64009L6.35 4.60145C5.19377 5.59249 4.61566 6.08802 4.30783 6.75731ZM13.6548 18.9531C13.6548 18.9515 13.6548 18.9499 13.6548 18.9482V13.3403C13.6548 13.2732 13.6003 13.2188 13.5332 13.2188H10.1685C10.1013 13.2188 10.0469 13.2732 10.0469 13.3403V18.9482C10.0469 18.9499 10.0469 18.9515 10.0469 18.9531H13.6548Z" fill="#AEAEAE"/>
</svg>
