<svg width="62" height="14" viewBox="0 0 62 14" fill="none" xmlns="http://www.w3.org/2000/svg">
<path d="M11.3047 7.27344C11.3047 8.15365 11.1953 8.95573 10.9766 9.67969C10.7578 10.3984 10.4245 11.0182 9.97656 11.5391C9.53385 12.0599 8.97135 12.4609 8.28906 12.7422C7.60677 13.0182 6.79948 13.1562 5.86719 13.1562C4.9349 13.1562 4.1276 13.0182 3.44531 12.7422C2.76302 12.4609 2.19792 12.0599 1.75 11.5391C1.30729 11.0182 0.976562 10.3958 0.757812 9.67188C0.539062 8.94792 0.429688 8.14323 0.429688 7.25781C0.429688 6.07552 0.622396 5.04688 1.00781 4.17188C1.39844 3.29167 1.9974 2.60938 2.80469 2.125C3.61198 1.64062 4.63802 1.39844 5.88281 1.39844C7.1224 1.39844 8.14062 1.64062 8.9375 2.125C9.73958 2.60938 10.3333 3.29167 10.7188 4.17188C11.1094 5.05208 11.3047 6.08594 11.3047 7.27344ZM2.96875 7.27344C2.96875 8.07031 3.06771 8.75781 3.26562 9.33594C3.46875 9.90885 3.78385 10.3516 4.21094 10.6641C4.63802 10.9714 5.1901 11.125 5.86719 11.125C6.55469 11.125 7.11198 10.9714 7.53906 10.6641C7.96615 10.3516 8.27604 9.90885 8.46875 9.33594C8.66667 8.75781 8.76562 8.07031 8.76562 7.27344C8.76562 6.07552 8.54167 5.13281 8.09375 4.44531C7.64583 3.75781 6.90885 3.41406 5.88281 3.41406C5.20052 3.41406 4.64323 3.57031 4.21094 3.88281C3.78385 4.1901 3.46875 4.63281 3.26562 5.21094C3.06771 5.78385 2.96875 6.47135 2.96875 7.27344ZM18.4453 4.10156C19.3776 4.10156 20.1276 4.35677 20.6953 4.86719C21.263 5.3724 21.5469 6.1849 21.5469 7.30469V13H19.1641V7.89844C19.1641 7.27344 19.0495 6.80208 18.8203 6.48438C18.5964 6.16667 18.2422 6.00781 17.7578 6.00781C17.0286 6.00781 16.5312 6.25521 16.2656 6.75C16 7.24479 15.8672 7.95833 15.8672 8.89062V13H13.4844V4.26562H15.3047L15.625 5.38281H15.7578C15.9453 5.08073 16.1771 4.83594 16.4531 4.64844C16.7344 4.46094 17.0443 4.32292 17.3828 4.23438C17.7266 4.14583 18.0807 4.10156 18.4453 4.10156ZM27.6016 4.10156C28.4089 4.10156 29.1042 4.25781 29.6875 4.57031C30.2708 4.8776 30.7214 5.32552 31.0391 5.91406C31.3568 6.5026 31.5156 7.22135 31.5156 8.07031V9.22656H25.8828C25.9089 9.89844 26.1094 10.4271 26.4844 10.8125C26.8646 11.1927 27.3906 11.3828 28.0625 11.3828C28.6198 11.3828 29.1302 11.3255 29.5938 11.2109C30.0573 11.0964 30.5339 10.9245 31.0234 10.6953V12.5391C30.5911 12.7526 30.138 12.9089 29.6641 13.0078C29.1953 13.1068 28.625 13.1562 27.9531 13.1562C27.0781 13.1562 26.3021 12.9948 25.625 12.6719C24.9531 12.349 24.4245 11.8568 24.0391 11.1953C23.6589 10.5339 23.4688 9.70052 23.4688 8.69531C23.4688 7.67448 23.6406 6.82552 23.9844 6.14844C24.3333 5.46615 24.8177 4.95573 25.4375 4.61719C26.0573 4.27344 26.7786 4.10156 27.6016 4.10156ZM27.6172 5.79688C27.1536 5.79688 26.7682 5.94531 26.4609 6.24219C26.1589 6.53906 25.9844 7.00521 25.9375 7.64062H29.2812C29.276 7.28646 29.2109 6.97135 29.0859 6.69531C28.9661 6.41927 28.7839 6.20052 28.5391 6.03906C28.2995 5.8776 27.9922 5.79688 27.6172 5.79688ZM35.8359 0.84375V3.67188C35.8359 4 35.8255 4.32552 35.8047 4.64844C35.7891 4.97135 35.7682 5.22135 35.7422 5.39844H35.8359C36.0651 5.03906 36.3776 4.73438 36.7734 4.48438C37.1693 4.22917 37.6823 4.10156 38.3125 4.10156C39.2917 4.10156 40.0859 4.48438 40.6953 5.25C41.3047 6.01562 41.6094 7.13802 41.6094 8.61719C41.6094 9.61198 41.4688 10.4479 41.1875 11.125C40.9062 11.7969 40.513 12.3047 40.0078 12.6484C39.5026 12.987 38.9167 13.1562 38.25 13.1562C37.6094 13.1562 37.1042 13.0417 36.7344 12.8125C36.3646 12.5833 36.0651 12.3255 35.8359 12.0391H35.6719L35.2734 13H33.4531V0.84375H35.8359ZM37.5469 6.00781C37.1302 6.00781 36.7995 6.09375 36.5547 6.26562C36.3099 6.4375 36.1302 6.69531 36.0156 7.03906C35.9062 7.38281 35.8464 7.81771 35.8359 8.34375V8.60156C35.8359 9.45052 35.9609 10.1016 36.2109 10.5547C36.4609 11.0026 36.9167 11.2266 37.5781 11.2266C38.0677 11.2266 38.4557 11 38.7422 10.5469C39.0339 10.0938 39.1797 9.4401 39.1797 8.58594C39.1797 7.73177 39.0339 7.08854 38.7422 6.65625C38.4505 6.22396 38.0521 6.00781 37.5469 6.00781ZM51.5156 8.61719C51.5156 9.34635 51.4167 9.99219 51.2188 10.5547C51.026 11.1172 50.7422 11.5938 50.3672 11.9844C49.9974 12.3698 49.5495 12.6615 49.0234 12.8594C48.5026 13.0573 47.9141 13.1562 47.2578 13.1562C46.6432 13.1562 46.0781 13.0573 45.5625 12.8594C45.0521 12.6615 44.6068 12.3698 44.2266 11.9844C43.8516 11.5938 43.5599 11.1172 43.3516 10.5547C43.1484 9.99219 43.0469 9.34635 43.0469 8.61719C43.0469 7.64844 43.2188 6.82812 43.5625 6.15625C43.9062 5.48438 44.3958 4.97396 45.0312 4.625C45.6667 4.27604 46.4245 4.10156 47.3047 4.10156C48.1224 4.10156 48.8464 4.27604 49.4766 4.625C50.112 4.97396 50.6094 5.48438 50.9688 6.15625C51.3333 6.82812 51.5156 7.64844 51.5156 8.61719ZM45.4766 8.61719C45.4766 9.1901 45.5391 9.67188 45.6641 10.0625C45.7891 10.4531 45.9844 10.7474 46.25 10.9453C46.5156 11.1432 46.862 11.2422 47.2891 11.2422C47.7109 11.2422 48.0521 11.1432 48.3125 10.9453C48.5781 10.7474 48.7708 10.4531 48.8906 10.0625C49.0156 9.67188 49.0781 9.1901 49.0781 8.61719C49.0781 8.03906 49.0156 7.5599 48.8906 7.17969C48.7708 6.79427 48.5781 6.50521 48.3125 6.3125C48.0469 6.11979 47.7005 6.02344 47.2734 6.02344C46.6432 6.02344 46.1849 6.23958 45.8984 6.67188C45.6172 7.10417 45.4766 7.7526 45.4766 8.61719ZM55.2734 8.53906L52.4609 4.26562H55.1641L56.8594 7.04688L58.5703 4.26562H61.2734L58.4297 8.53906L61.4062 13H58.6953L56.8594 10.0078L55.0156 13H52.3125L55.2734 8.53906Z" fill="#5B5F66"/>
</svg>
